<svg width="1000" height="1000" xmlns="http://www.w3.org/2000/svg">
    <defs>
        <linearGradient id="gradient" x1="0%" y1="0%" x2="100%" y2="0%">
            <stop offset="0%" style="stop-color:rgb(3, 218, 197);stop-opacity:1" />
            <stop offset="100%" style="stop-color:rgb(3, 240, 100);stop-opacity:1" />
        </linearGradient>
        <linearGradient id="vaultgradient" x1="0%" y1="0%" x2="100%" y2="0%">
            <stop offset="0%" style="stop-color:rgb(98, 0, 238);stop-opacity:1" />
            <stop offset="100%" style="stop-color:rgb(55, 0, 179);stop-opacity:1" />
        </linearGradient>
    </defs>
    <g transform="translate(5,5)">
    <rect fill="url(#vaultgradient)" width="100" height="100" stroke="black" rx="15" stroke-width="2">
    </rect>
    <rect x="13" y="13" width="74" height="74" fill="none" stroke="black" stroke-width="1"/>
    <rect x="14.5" y="14.5" width="71" height="71" fill="none" stroke="black" stroke-width="1"/>
    <g transform="scale(0.5) translate(50,50)">
    <path d="   M50 0
                A 50 50 0 0 0 50 100
                A 50 50 0 0 0 50 0
                M 93.30127 25
                L 50 50
                M 50 100
                L 50 50
                M 6.69873 25
                L 50 50
                M 50 40
                A 10 10  0 0 0 50 60
                A 10 10  0 0 0 50 40
                Z"
          stroke="black" fill="none" stroke-width="10" transform="translate(3,3)"/>

    <path d="   M50 0
                A 50 50 0 0 0 50 100
                A 50 50 0 0 0 50 0
                M 93.30127 25
                L 50 50
                M 50 100
                L 50 50
                M 6.69873 25
                L 50 50
                M 50 40
                A 10 10  0 0 0 50 60
                A 10 10  0 0 0 50 40
                Z"
          stroke="url(#gradient)" fill="none" stroke-width="10"/>
    </g>
    </g>


</svg>